<svg width="49" height="41" viewBox="0 0 49 41" fill="none" xmlns="http://www.w3.org/2000/svg">
<g clip-path="url(#clip0_2532_214)">
<path d="M25.031 39.4265C28.971 39.4265 32.165 36.3288 32.165 32.5075C32.165 28.6862 28.971 25.5884 25.031 25.5884C21.091 25.5884 17.897 28.6862 17.897 32.5075C17.897 36.3288 21.091 39.4265 25.031 39.4265Z" fill="url(#paint0_linear_2532_214)"/>
<path fill-rule="evenodd" clip-rule="evenodd" d="M9.9871 22.1905L13.8175 26.5907C13.9591 26.7522 14.1615 26.8519 14.3794 26.8675C14.5974 26.8831 14.8127 26.8134 14.9772 26.6739C21.1802 21.2796 28.8614 21.2796 35.0807 26.6739C35.2452 26.8134 35.4605 26.8831 35.6785 26.8675C35.8964 26.8519 36.0988 26.7522 36.2404 26.5907L40.0749 22.1905C40.3643 21.8576 40.3224 21.3605 39.9809 21.0776C30.9767 13.4378 19.0812 13.4378 10.081 21.0776C9.73959 21.3605 9.69764 21.8576 9.9871 22.1905Z" fill="#2684FF"/>
<path fill-rule="evenodd" clip-rule="evenodd" d="M0.641344 10.805L6.7435 17.3021C6.96905 17.5405 7.29149 17.6877 7.63871 17.7108C7.98593 17.7339 8.32895 17.6309 8.59106 17.4249C18.4729 9.46 30.7097 9.46 40.6176 17.4249C40.8797 17.6309 41.2228 17.7339 41.57 17.7108C41.9172 17.6877 42.2396 17.5405 42.4652 17.3021L48.5738 10.805C49.035 10.3134 48.9681 9.5794 48.4242 9.16175C34.0796 -2.1189 15.1291 -2.1189 0.790971 9.16175C0.247049 9.5794 0.180213 10.3134 0.641344 10.805Z" fill="#2684FF"/>
</g>
<defs>
<linearGradient id="paint0_linear_2532_214" x1="25.031" y1="37.0462" x2="25.031" y2="24.7884" gradientUnits="userSpaceOnUse">
<stop stop-color="#2684FF"/>
<stop offset="0.82" stop-color="#0052CC"/>
</linearGradient>
<clipPath id="clip0_2532_214">
<rect width="48.9736" height="40.2672" fill="white" transform="translate(0 -0.00390625)"/>
</clipPath>
</defs>
</svg>
